<svg id="Group_7889" data-name="Group 7889" xmlns="http://www.w3.org/2000/svg" width="22" height="22" viewBox="0 0 22 22">
  <g id="Ellipse_278" data-name="Ellipse 278" fill="none" stroke="#90a6a9" stroke-width="1">
    <circle cx="11" cy="11" r="11" stroke="none"/>
    <circle cx="11" cy="11" r="10.5" fill="none"/>
  </g>
  <g id="noun_Close_997407" transform="translate(8.41 5.473)">
    <g id="Group_7641" data-name="Group 7641" transform="translate(0 0)">
      <g id="Union_1" data-name="Union 1" transform="translate(6.367 11.09) rotate(180)" fill="none">
        <path d="M5.333.043.044,5.229c-.1.1-.029.32.153.5a.8.8,0,0,0,.188.14l5.28,5.177c.1.1.323.027.5-.154s.25-.4.153-.5L1.213,5.382,5.991.7c.1-.1.029-.319-.153-.5A.606.606,0,0,0,5.453,0,.166.166,0,0,0,5.333.043Z" stroke="none"/>
        <path d="M 5.452669620513916 -9.5367431640625e-07 C 5.563829898834229 -9.5367431640625e-07 5.711759567260742 0.07163810729980469 5.837509632110596 0.1967582702636719 C 6.019309520721436 0.3776588439941406 6.087709903717041 0.6017589569091797 5.990509510040283 0.6971588134765625 L 1.213249683380127 5.381738662719727 L 6.322609901428223 10.39285850524902 C 6.419809818267822 10.48825836181641 6.351409912109375 10.71145820617676 6.169609546661377 10.89235877990723 C 5.987809658050537 11.07325839996338 5.761909961700439 11.14255905151367 5.664709568023682 11.0462589263916 L 0.3849296569824219 5.868898391723633 C 0.3216795921325684 5.835558414459229 0.2570595741271973 5.788318634033203 0.1972098350524902 5.729058742523193 C 0.01540946960449219 5.548158645629883 -0.05299043655395508 5.324058532714844 0.04420948028564453 5.228658676147461 L 5.3326096534729 0.04285812377929688 C 5.362239837646484 0.0137786865234375 5.403919696807861 -9.5367431640625e-07 5.452669620513916 -9.5367431640625e-07 Z" stroke="none" fill="#90a6a9"/>
      </g>
    </g>
  </g>
</svg>
