<svg width="20" height="20" viewBox="0 0 20 20" fill="none" xmlns="http://www.w3.org/2000/svg">
<path id="Vector" d="M9 13H11V15H9V13ZM9 5H11V11H9V5ZM9.99 5.00045e-06C8.01262 0.00198239 6.0802 0.590152 4.43703 1.69017C2.79385 2.79018 1.51369 4.35266 0.758342 6.18009C0.00299907 8.00753 -0.193608 10.0179 0.193372 11.957C0.580353 13.8962 1.53355 15.6771 2.93247 17.0746C4.33139 18.4721 6.11324 19.4235 8.05278 19.8086C9.99231 20.1936 12.0025 19.995 13.8291 19.2378C15.6558 18.4807 17.217 17.1989 18.3154 15.5547C19.4138 13.9104 20 11.9774 20 10C20 8.68594 19.741 7.38477 19.2378 6.17086C18.7347 4.95695 17.9972 3.85412 17.0675 2.9254C16.1379 1.99668 15.0343 1.2603 13.8199 0.758338C12.6055 0.256379 11.3041 -0.00130906 9.99 5.00045e-06V5.00045e-06ZM10 18C8.41775 18 6.87104 17.5308 5.55544 16.6518C4.23985 15.7727 3.21447 14.5233 2.60897 13.0615C2.00347 11.5997 1.84504 9.99113 2.15372 8.43928C2.4624 6.88743 3.22433 5.46197 4.34315 4.34315C5.46197 3.22433 6.88743 2.4624 8.43928 2.15372C9.99113 1.84504 11.5997 2.00347 13.0615 2.60897C14.5233 3.21447 15.7727 4.23985 16.6518 5.55544C17.5308 6.87104 18 8.41775 18 10C18 12.1217 17.1572 14.1566 15.6569 15.6569C14.1566 17.1572 12.1217 18 10 18V18Z" fill="#0B5964"/>
</svg>
