<svg height="38" viewBox="0 0 38 38" width="38" xmlns="http://www.w3.org/2000/svg"><g fill="#000" stroke="#fff"><circle cx="19" cy="19" r="19" stroke="none"/><circle cx="19" cy="19" fill="none" r="18.5"/></g><g fill="none" transform="translate(-57.5 61.501)"><path d="m79.608-33.807-8.593-8.5a.414.414 0 0 1 -.187-.106.4.4 0 0 1 -.119-.332.408.408 0 0 1 .119-.326.415.415 0 0 1 .187-.106l8.592-8.5a.417.417 0 0 1 .586 0 .407.407 0 0 1 0 .579l-8.447 8.36 8.447 8.36a.408.408 0 0 1 0 .58.415.415 0 0 1 -.293.12.413.413 0 0 1 -.292-.129z"/><path d="m79.8998642-33.68654633c-.10586548 0-.21161652-.0400505-.29216004-.12015914l-8.59279632-8.50381089c-.06833649-.01789856-.13300324-.05337906-.18670655-.10647964-.09203338-.09051132-.13175201-.21353913-.11921691-.33214951-.0102768-.11648178.02945709-.23649215.11921691-.32575989.05380249-.05290222.11860657-.08819961.18708802-.10597229l8.59151458-8.50341796c.08099366-.08010483.18697358-.12015915.29294587-.12015915.10597992 0 .21195221.04005432.29295349.12015915.16109466.16019058.16109466.41939926 0 .57868957l-8.44711304 8.35964966 8.44711304 8.3596611c.16109466.16019821.16109466.41939926 0 .57958985-.08100128.08010864-.18697357.12015914-.29283905.12015914z" fill="#fff"/></g></svg>