<svg xmlns ="http://www.w3.org/2000/svg" xmlns:xlink="http://www.w3.org/1999/xlink" width="375"
    height="128" viewBox="0 0 375 128">
    <defs>
        <style>
            .a{fill:#fff;}.b{clip-path:url(#a);}.c{fill:none;}.d,.e,.f{stroke:none;}.e{fill:#09a2b6;}.f{fill:#83d2c6;}
        </style>
        <clipPath id="a">
            <rect class="a" width="375" height="128" transform="translate(0 684)" />
        </clipPath>
    </defs>
    <g class="b" transform="translate(0 -684)">
        <g class="c" transform="translate(608.173 1296.289) rotate(164)">
            <path class="d"
                d="M87.564,0,479.173,30.32a60,60,0,0,1,60,60L405.87,587.485a60,60,0,0,1-60,60H60a60,60,0,0,1-60-60L27.564,60A60,60,0,0,1,87.564,0Z" />
            <path class="e"
                d="M 87.48745727539062 2.00006103515625 C 79.6834716796875 2.00994873046875 72.1142578125 3.54302978515625 64.98812866210938 6.55706787109375 C 61.55178833007812 8.0106201171875 58.2373046875 9.8095703125 55.13681030273438 11.90435791015625 C 52.06512451171875 13.97943115234375 49.1766357421875 16.3626708984375 46.55154418945312 18.98785400390625 C 43.9263916015625 21.6129150390625 41.54312133789062 24.50140380859375 39.46804809570312 27.5731201171875 C 37.373291015625 30.673583984375 35.57431030273438 33.98809814453125 34.12078857421875 37.4244384765625 C 31.09695434570312 44.57366943359375 29.563720703125 52.169189453125 29.563720703125 60 L 29.563720703125 60.05224609375 L 29.56097412109375 60.1043701171875 L 2 587.5364990234375 C 2.0067138671875 595.34912109375 3.53985595703125 602.9273071289062 6.55706787109375 610.0608520507812 C 8.01055908203125 613.4971923828125 9.8095703125 616.8116455078125 11.904296875 619.9121704101562 C 13.9793701171875 622.9838256835938 16.36260986328125 625.872314453125 18.98779296875 628.4974365234375 C 21.61285400390625 631.1226196289062 24.50140380859375 633.505859375 27.57305908203125 635.5809326171875 C 30.67355346679688 637.6756591796875 33.988037109375 639.4746704101562 37.42437744140625 640.9281616210938 C 44.57363891601562 643.9520263671875 52.16912841796875 645.4852294921875 59.99996948242188 645.4852294921875 L 345.8703002929688 645.4852294921875 C 353.7011108398438 645.4852294921875 361.296630859375 643.9520263671875 368.4458618164062 640.9281616210938 C 371.8822021484375 639.4746704101562 375.1967163085938 637.6756591796875 378.2972106933594 635.5809326171875 C 381.368896484375 633.505859375 384.2573852539062 631.1226196289062 386.8824462890625 628.4974365234375 C 389.5076293945312 625.872314453125 391.890869140625 622.9838256835938 393.9659423828125 619.9121704101562 C 396.0607299804688 616.8116455078125 397.8597106933594 613.4971923828125 399.313232421875 610.0608520507812 C 402.3370361328125 602.91162109375 403.8703002929688 595.3161010742188 403.8703002929688 587.4852294921875 L 403.8703002929688 587.2217407226562 L 403.9385375976562 586.9673461914062 L 537.1718139648438 90.058837890625 C 537.1381225585938 82.3201904296875 535.6055297851562 74.8143310546875 532.6152954101562 67.7445068359375 C 531.161865234375 64.30816650390625 529.3628540039062 60.9937744140625 527.2681884765625 57.8931884765625 C 525.1930541992188 54.821533203125 522.809814453125 51.9329833984375 520.1846923828125 49.30792236328125 C 517.5596313476562 46.682861328125 514.6712036132812 44.29962158203125 511.5995483398438 42.22442626953125 C 508.4990539550781 40.1297607421875 505.1845397949219 38.3306884765625 501.748291015625 36.87725830078125 C 494.59912109375 33.85345458984375 487.0036315917969 32.3201904296875 479.1727905273438 32.3201904296875 L 479.095458984375 32.3201904296875 L 479.0183715820312 32.31414794921875 L 87.48745727539062 2.00006103515625 M 87.563720703125 0 L 479.1727905273438 30.3201904296875 C 512.309814453125 30.3201904296875 539.17236328125 57.1829833984375 539.17236328125 90.320068359375 L 405.8703002929688 587.4852294921875 C 405.8703002929688 620.622314453125 379.0073852539062 647.4852294921875 345.8703002929688 647.4852294921875 L 59.99996948242188 647.4852294921875 C 26.86285400390625 647.4852294921875 -6.103515625e-05 620.622314453125 -6.103515625e-05 587.4852294921875 L 27.563720703125 60 C 27.563720703125 26.8629150390625 54.4266357421875 0 87.563720703125 0 Z" />
        </g>
        <g class="c" transform="translate(578.173 1316.289) rotate(164)">
            <path class="d"
                d="M87.564,0,479.173,30.32a60,60,0,0,1,60,60L405.87,587.485a60,60,0,0,1-60,60H60a60,60,0,0,1-60-60L27.564,60A60,60,0,0,1,87.564,0Z" />
            <path class="f"
                d="M 87.48745727539062 2.00006103515625 C 79.6834716796875 2.00994873046875 72.1142578125 3.54302978515625 64.98812866210938 6.55706787109375 C 61.55178833007812 8.0106201171875 58.2373046875 9.8095703125 55.13681030273438 11.90435791015625 C 52.06512451171875 13.97943115234375 49.1766357421875 16.3626708984375 46.55154418945312 18.98785400390625 C 43.9263916015625 21.6129150390625 41.54312133789062 24.50140380859375 39.46804809570312 27.5731201171875 C 37.373291015625 30.673583984375 35.57431030273438 33.98809814453125 34.12078857421875 37.4244384765625 C 31.09695434570312 44.57366943359375 29.563720703125 52.169189453125 29.563720703125 60 L 29.563720703125 60.05224609375 L 29.56097412109375 60.1043701171875 L 2 587.5364990234375 C 2.0067138671875 595.34912109375 3.53985595703125 602.9273071289062 6.55706787109375 610.0608520507812 C 8.01055908203125 613.4971923828125 9.8095703125 616.8116455078125 11.904296875 619.9121704101562 C 13.9793701171875 622.9838256835938 16.36260986328125 625.872314453125 18.98779296875 628.4974365234375 C 21.61285400390625 631.1226196289062 24.50140380859375 633.505859375 27.57305908203125 635.5809326171875 C 30.67355346679688 637.6756591796875 33.988037109375 639.4746704101562 37.42437744140625 640.9281616210938 C 44.57363891601562 643.9520263671875 52.16912841796875 645.4852294921875 59.99996948242188 645.4852294921875 L 345.8703002929688 645.4852294921875 C 353.7011108398438 645.4852294921875 361.296630859375 643.9520263671875 368.4458618164062 640.9281616210938 C 371.8822021484375 639.4746704101562 375.1967163085938 637.6756591796875 378.2972106933594 635.5809326171875 C 381.368896484375 633.505859375 384.2573852539062 631.1226196289062 386.8824462890625 628.4974365234375 C 389.5076293945312 625.872314453125 391.890869140625 622.9838256835938 393.9659423828125 619.9121704101562 C 396.0607299804688 616.8116455078125 397.8597106933594 613.4971923828125 399.313232421875 610.0608520507812 C 402.3370361328125 602.91162109375 403.8703002929688 595.3161010742188 403.8703002929688 587.4852294921875 L 403.8703002929688 587.2217407226562 L 403.9385375976562 586.9673461914062 L 537.1718139648438 90.058837890625 C 537.1381225585938 82.3201904296875 535.6055297851562 74.8143310546875 532.6152954101562 67.7445068359375 C 531.161865234375 64.30816650390625 529.3628540039062 60.9937744140625 527.2681884765625 57.8931884765625 C 525.1930541992188 54.821533203125 522.809814453125 51.9329833984375 520.1846923828125 49.30792236328125 C 517.5596313476562 46.682861328125 514.6712036132812 44.29962158203125 511.5995483398438 42.22442626953125 C 508.4990539550781 40.1297607421875 505.1845397949219 38.3306884765625 501.748291015625 36.87725830078125 C 494.59912109375 33.85345458984375 487.0036315917969 32.3201904296875 479.1727905273438 32.3201904296875 L 479.095458984375 32.3201904296875 L 479.0183715820312 32.31414794921875 L 87.48745727539062 2.00006103515625 M 87.563720703125 0 L 479.1727905273438 30.3201904296875 C 512.309814453125 30.3201904296875 539.17236328125 57.1829833984375 539.17236328125 90.320068359375 L 405.8703002929688 587.4852294921875 C 405.8703002929688 620.622314453125 379.0073852539062 647.4852294921875 345.8703002929688 647.4852294921875 L 59.99996948242188 647.4852294921875 C 26.86285400390625 647.4852294921875 -6.103515625e-05 620.622314453125 -6.103515625e-05 587.4852294921875 L 27.563720703125 60 C 27.563720703125 26.8629150390625 54.4266357421875 0 87.563720703125 0 Z" />
        </g>
    </g>
</svg>