<svg height="111" viewBox="0 0 375 111" width="375" xmlns="http://www.w3.org/2000/svg">
    <clipPath id="b">
        <path d="m0 0h375v111h-375z" />
    </clipPath>
    <g clip-path="url(#b)" fill="none">
        <g transform="matrix(.9612617 -.27563736 .27563736 .9612617 -152.088 -425.095)">
            <path
                d="m87.564-96.126 391.609 30.32a60 60 0 0 1 60 60l-133.303 497.165a60 60 0 0 1 -60 60h-285.87a60 60 0 0 1 -60-60l27.564-527.485a60 60 0 0 1 60-60z" />
            <path
                d="m87.48745728-94.12609863c-7.8039856.00988769-15.37322999 1.54296875-22.49935914 4.55700683-3.43624877 1.45349121-6.75073242 3.25250244-9.85131835 5.34722901-3.07159424 2.07507324-5.96008301 4.45837402-8.58517457 7.08349609-2.62515258 2.62512207-5.00842285 5.51361084-7.08349609 8.58526611-2.09475708 3.10052491-3.89382934 6.41497803-5.34725952 9.85131836-3.02383423 7.14926148-4.55706787 14.7447815-4.55706787 22.57559204v.0522461l-.00274658.0520935-27.56097412 527.43225098c.00671386 7.81259155 1.53985595 15.39080811 4.55706787 22.52435303 1.45349121 3.43634033 3.25250244 6.75079346 5.347229 9.85131836 2.07507324 3.07165527 4.45831299 5.96014404 7.08349609 8.58526611 2.62506104 2.62512207 5.51361084 5.00842285 8.58526612 7.08349609 3.10049438 2.09472657 6.41497802 3.8937378 9.85131836 5.34722901 7.14926147 3.02386474 14.74475097 4.55706787 22.57559204 4.55706787h285.87033081c7.83081055 0 15.42633056-1.53320313 22.57556152-4.55706787 3.43634033-1.45349121 6.75085449-3.25250244 9.85134888-5.34722901 3.07168579-2.07507324 5.96017456-4.45837402 8.58523559-7.08349609 2.62518311-2.62512207 5.00842286-5.51361084 7.0834961-8.58526611 2.0947876-3.1005249 3.89376831-6.41497803 5.34729004-9.85131836 3.02380371-7.14926148 4.55706787-14.74475098 4.55706787-22.57559204v-.26351929l.0682373-.25439453 133.23333741-496.90856934c-.03369141-7.73864746-1.56622315-15.24453735-4.55651856-22.31436157-1.45336914-3.43634033-3.25238037-6.75076294-5.3470459-9.85131836-2.07519531-3.07168579-4.45843506-5.96017456-7.08349609-8.58526611-2.62512207-2.62509156-5.51361084-5.0083313-8.58517456-7.0834961-3.1005249-2.09466552-6.41500855-3.89376831-9.85125733-5.34713745-7.14926147-3.02386474-14.74475097-4.5571289-22.57559204-4.5571289h-.07733154l-.0770874-.00598145zm.07623291-2.00006104 391.60916137 30.3201294c33.13708496 0 59.99969483 26.862854 59.99969483 59.99993896l-133.30218506 497.16525269c0 33.13705444-26.86291504 59.99996948-60 59.99996948h-285.87033081c-33.13711548 0-60.00003052-26.86291504-60.00003052-59.99996948l27.56378174-527.48535157c0-33.13705444 26.86291504-59.99996948 59.99990845-59.99996948z"
                fill="#83d2c6" opacity="0.3"/>
        </g>
        <g transform="matrix(.9612617 -.27563736 .27563736 .9612617 -122.088 -425.095)">
            <path
                d="m87.564-96.126 391.609 30.32a60 60 0 0 1 60 60l-133.303 497.165a60 60 0 0 1 -60 60h-285.87a60 60 0 0 1 -60-60l27.564-527.485a60 60 0 0 1 60-60z" />
            <path
                d="m87.48745728-94.12609863c-7.8039856.00988769-15.37322999 1.54296875-22.49935914 4.55700683-3.43624877 1.45349121-6.75073242 3.25250244-9.85131835 5.34722901-3.07159424 2.07507324-5.96008301 4.45837402-8.58517457 7.08349609-2.62515258 2.62512207-5.00842285 5.51361084-7.08349609 8.58526611-2.09475708 3.10052491-3.89382934 6.41497803-5.34725952 9.85131836-3.02383423 7.14926148-4.55706787 14.7447815-4.55706787 22.57559204v.0522461l-.00274658.0520935-27.56097412 527.43225098c.00671386 7.81259155 1.53985595 15.39080811 4.55706787 22.52435303 1.45349121 3.43634033 3.25250244 6.75079346 5.347229 9.85131836 2.07507324 3.07165527 4.45831299 5.96014404 7.08349609 8.58526611 2.62506104 2.62512207 5.51361084 5.00842285 8.58526612 7.08349609 3.10049438 2.09472657 6.41497802 3.8937378 9.85131836 5.34722901 7.14926147 3.02386474 14.74475097 4.55706787 22.57559204 4.55706787h285.87033081c7.83081055 0 15.42633056-1.53320313 22.57556152-4.55706787 3.43634033-1.45349121 6.75085449-3.25250244 9.85134888-5.34722901 3.07168579-2.07507324 5.96017456-4.45837402 8.58523559-7.08349609 2.62518311-2.62512207 5.00842286-5.51361084 7.0834961-8.58526611 2.0947876-3.1005249 3.89376831-6.41497803 5.34729004-9.85131836 3.02380371-7.14926148 4.55706787-14.74475098 4.55706787-22.57559204v-.26351929l.0682373-.25439453 133.23333741-496.90856934c-.03369141-7.73864746-1.56622315-15.24453735-4.55651856-22.31436157-1.45336914-3.43634033-3.25238037-6.75076294-5.3470459-9.85131836-2.07519531-3.07168579-4.45843506-5.96017456-7.08349609-8.58526611-2.62512207-2.62509156-5.51361084-5.0083313-8.58517456-7.0834961-3.1005249-2.09466552-6.41500855-3.89376831-9.85125733-5.34713745-7.14926147-3.02386474-14.74475097-4.5571289-22.57559204-4.5571289h-.07733154l-.0770874-.00598145zm.07623291-2.00006104 391.60916137 30.3201294c33.13708496 0 59.99969483 26.862854 59.99969483 59.99993896l-133.30218506 497.16525269c0 33.13705444-26.86291504 59.99996948-60 59.99996948h-285.87033081c-33.13711548 0-60.00003052-26.86291504-60.00003052-59.99996948l27.56378174-527.48535157c0-33.13705444 26.86291504-59.99996948 59.99990845-59.99996948z"
                fill="#83d2c6" opacity="0.3"/>
        </g>
    </g>
</svg>