<svg width="375" height="179" viewBox="0 0 375 179" fill="none" xmlns="http://www.w3.org/2000/svg">
<g clip-path="url(#clip0)">
<path d="M523.523 658.481C531.022 656.321 537.876 652.761 543.895 647.899C546.798 645.555 549.488 642.912 551.891 640.044C554.272 637.202 556.391 634.115 558.191 630.868C559.991 627.621 561.486 624.188 562.634 620.663C563.793 617.105 564.608 613.423 565.058 609.719C565.995 602.013 565.375 594.29 563.216 586.762L563.202 586.712L563.19 586.661L444.304 72.0639C442.144 64.5558 438.581 57.6938 433.714 51.6682C431.37 48.7656 428.727 46.0754 425.859 43.6724C423.018 41.2917 419.93 39.172 416.683 37.3722C413.436 35.5723 410.003 34.0775 406.478 32.9295C402.92 31.7706 399.239 30.9548 395.535 30.5048C387.829 29.5687 380.105 30.1885 372.578 32.347L97.7813 111.144C90.2539 113.302 83.3752 116.869 77.3364 121.747C74.4338 124.091 71.7436 126.734 69.3406 129.602C66.9598 132.444 64.8402 135.531 63.0404 138.778C61.2405 142.025 59.7457 145.458 58.5977 148.983C57.4387 152.541 56.623 156.223 56.173 159.926C55.2369 167.632 55.8566 175.356 58.0151 182.884L58.0877 183.137L58.0923 183.4L66.9868 697.783C69.1522 705.213 72.6943 712.006 77.5174 717.977C79.8618 720.88 82.5046 723.57 85.3728 725.973C88.2142 728.354 91.3013 730.474 94.5483 732.273C97.7953 734.073 101.229 735.568 104.753 736.716C108.311 737.875 111.993 738.691 115.697 739.141C123.403 740.077 131.126 739.457 138.654 737.299L138.728 737.277L138.804 737.262L523.523 658.481ZM524.001 660.425L139.205 739.221C107.352 748.355 74.1255 729.937 64.9917 698.084L56.0926 183.435C46.9588 151.582 65.3766 118.355 97.23 109.221L372.026 30.4244C403.88 21.2906 437.106 39.7085 446.24 71.5619L565.139 586.211C574.273 618.064 555.855 651.291 524.001 660.425Z" fill="#09A2B6"/>
<path d="M493.523 678.481C501.022 676.321 507.876 672.761 513.895 667.899C516.798 665.555 519.488 662.912 521.891 660.044C524.272 657.202 526.391 654.115 528.191 650.868C529.991 647.621 531.486 644.188 532.634 640.663C533.793 637.105 534.608 633.423 535.058 629.719C535.995 622.013 535.375 614.29 533.216 606.762L533.202 606.712L533.19 606.661L414.304 92.0639C412.144 84.5558 408.581 77.6938 403.714 71.6682C401.37 68.7656 398.727 66.0754 395.859 63.6724C393.018 61.2917 389.93 59.172 386.683 57.3722C383.436 55.5723 380.003 54.0775 376.478 52.9295C372.92 51.7706 369.239 50.9548 365.535 50.5048C357.829 49.5687 350.105 50.1885 342.578 52.347L67.7813 131.144C60.2539 133.302 53.3752 136.869 47.3364 141.747C44.4338 144.091 41.7436 146.734 39.3406 149.602C36.9598 152.444 34.8402 155.531 33.0404 158.778C31.2405 162.025 29.7457 165.458 28.5977 168.983C27.4387 172.541 26.623 176.223 26.173 179.926C25.2369 187.632 25.8566 195.356 28.0151 202.884L28.0877 203.137L28.0923 203.4L36.9868 717.783C39.1522 725.213 42.6943 732.006 47.5174 737.977C49.8618 740.88 52.5046 743.57 55.3728 745.973C58.2142 748.354 61.3013 750.474 64.5483 752.273C67.7953 754.073 71.2287 755.568 74.7534 756.716C78.3111 757.875 81.9931 758.691 85.6969 759.141C93.4026 760.077 101.126 759.457 108.654 757.299L108.728 757.277L108.804 757.262L493.523 678.481ZM494.001 680.425L109.205 759.221C77.3519 768.355 44.1255 749.937 34.9917 718.084L26.0926 203.435C16.9588 171.582 35.3766 138.355 67.23 129.221L342.026 50.4244C373.88 41.2906 407.106 59.7085 416.24 91.5619L535.139 606.211C544.273 638.064 525.855 671.291 494.001 680.425Z" fill="#83D2C6"/>
</g>
<defs>
<clipPath id="clip0">
<rect width="375" height="179" fill="white"/>
</clipPath>
</defs>
</svg>
