<svg width="375" height="180" viewBox="0 0 375 180" fill="none" xmlns="http://www.w3.org/2000/svg">
    <g clip-path="url(#clip0)">
        <path
            d="M478.165 759.958C486.229 757.457 493.601 753.332 500.079 747.697C503.206 744.977 506.106 741.909 508.696 738.579C511.265 735.278 513.552 731.69 515.495 727.916C517.438 724.14 519.053 720.145 520.293 716.045C521.546 711.904 522.428 707.617 522.914 703.306C523.926 694.333 523.256 685.34 520.923 676.577L520.91 676.53L520.9 676.482L393.225 81.3191C390.826 72.3334 386.831 64.1563 381.352 57.0138C378.719 53.5817 375.751 50.4166 372.531 47.6066C369.343 44.8239 365.883 42.3683 362.248 40.308C348.364 32.4381 332.375 30.4957 317.228 34.839C316.842 34.9498 316.449 35.0667 316.062 35.1864L20.9575 126.318C12.8637 128.817 5.46493 132.95 -1.03349 138.603C-4.16119 141.323 -7.06054 144.391 -9.65105 147.721C-12.2195 151.022 -14.5068 154.61 -16.4493 158.384C-18.3932 162.16 -20.0076 166.155 -21.248 170.255C-22.5005 174.396 -23.3822 178.683 -23.8687 182.994C-24.8808 191.967 -24.2109 200.96 -21.8776 209.723L-21.8144 209.96L-21.8105 210.205L-12.2579 805.168C-9.85348 814.08 -5.87638 822.194 -0.434848 829.287C2.19818 832.719 5.16598 835.884 8.38602 838.694C11.5747 841.477 15.0345 843.933 18.6693 845.993C32.5539 853.863 48.5418 855.805 63.6875 851.461C64.0786 851.349 64.4713 851.232 64.8544 851.114L64.9332 851.089L65.0138 851.072L478.165 759.958ZM478.678 761.893L65.4445 853.025C65.0436 853.148 64.6404 853.268 64.2392 853.383C30.4023 863.087 -4.55976 841.855 -14.2536 805.447L-23.8103 210.238C-33.6191 173.398 -13.8402 134.97 20.3674 124.407L315.471 33.2755C315.872 33.1517 316.276 33.0316 316.677 32.9165C350.514 23.2139 385.476 44.4445 395.17 80.8524L522.855 676.062C532.664 712.902 512.885 751.33 478.678 761.893Z"
            fill="#09A2B6" />
        <path
            d="M448.165 779.958C456.229 777.457 463.601 773.332 470.079 767.697C473.206 764.977 476.106 761.909 478.696 758.579C481.265 755.278 483.552 751.69 485.495 747.916C487.438 744.14 489.053 740.145 490.293 736.045C491.546 731.904 492.428 727.617 492.914 723.306C493.926 714.333 493.256 705.34 490.923 696.577L490.91 696.53L490.9 696.482L363.225 101.319C360.826 92.3334 356.831 84.1563 351.352 77.0138C348.719 73.5817 345.751 70.4166 342.531 67.6066C339.343 64.8239 335.883 62.3683 332.248 60.308C318.364 52.4381 302.375 50.4957 287.228 54.839C286.842 54.9498 286.449 55.0667 286.062 55.1864L-9.04255 146.318C-17.1363 148.817 -24.5351 152.95 -31.0335 158.603C-34.1612 161.323 -37.0605 164.391 -39.6511 167.721C-42.2195 171.022 -44.5068 174.61 -46.4493 178.384C-48.3932 182.16 -50.0076 186.155 -51.248 190.255C-52.5005 194.396 -53.3822 198.683 -53.8687 202.994C-54.8808 211.967 -54.2109 220.96 -51.8776 229.723L-51.8144 229.96L-51.8105 230.205L-42.2579 825.168C-39.8535 834.08 -35.8764 842.194 -30.4348 849.287C-27.8018 852.719 -24.834 855.884 -21.614 858.694C-18.4253 861.477 -14.9655 863.933 -11.3307 865.993C2.55387 873.863 18.5418 875.805 33.6875 871.461C34.0786 871.349 34.4713 871.232 34.8544 871.114L34.9332 871.089L35.0138 871.072L448.165 779.958ZM448.678 781.893L35.4445 873.025C35.0436 873.148 34.6404 873.268 34.2392 873.383C0.402254 883.087 -34.5598 861.855 -44.2536 825.447L-53.8103 230.238C-63.6191 193.398 -43.8402 154.97 -9.63263 144.407L285.471 53.2755C285.872 53.1517 286.276 53.0316 286.677 52.9165C320.514 43.2139 355.476 64.4445 365.17 100.852L492.855 696.062C502.664 732.902 482.885 771.33 448.678 781.893Z"
            fill="#83D2C6" />
        <path
            d="M-108.659 -6.95427C-117.172 -4.50148 -124.925 -0.358008 -131.704 5.36201C-134.974 8.12177 -137.997 11.2442 -140.688 14.6426C-143.356 18.0113 -145.722 21.6806 -147.72 25.5483C-149.719 29.4185 -151.366 33.5191 -152.615 37.7364C-153.876 41.9959 -154.743 46.4115 -155.19 50.8609C-156.122 60.1233 -155.27 69.4367 -152.659 78.5424L-152.646 78.5897L-152.634 78.6377L-8.0377 696.136C-5.42566 705.223 -1.21737 713.556 4.4712 720.905C7.20842 724.441 10.2833 727.726 13.6103 730.67C16.9043 733.585 20.474 736.19 24.2202 738.412C27.9639 740.634 31.9145 742.492 35.9622 743.935C40.0457 745.39 44.2639 746.437 48.4997 747.044C57.3061 748.307 66.1034 747.705 74.6473 745.255L385.822 656.027C394.365 653.577 402.145 649.426 408.944 643.688C412.215 640.928 415.237 637.806 417.929 634.408C420.597 631.039 422.963 627.37 424.96 623.502C426.959 619.632 428.606 615.531 429.855 611.314C431.117 607.054 431.983 602.639 432.431 598.189C433.362 588.927 432.511 579.614 429.9 570.508L429.831 570.268L429.823 570.02L410.358 -45.2772C407.742 -54.2904 403.553 -62.5591 397.904 -69.8561C395.167 -73.3922 392.092 -76.6778 388.765 -79.6216C385.471 -82.536 381.901 -85.1409 378.155 -87.3638C374.412 -89.5851 370.461 -91.4432 366.413 -92.8861C362.33 -94.3419 358.112 -95.3881 353.876 -95.9954C345.069 -97.2581 336.272 -96.6562 327.728 -94.2062L327.649 -94.1836L327.569 -94.1676L-108.659 -6.95427ZM-109.132 -8.89929L327.177 -96.1288C363.247 -106.472 401.38 -83.845 412.349 -45.5909L431.822 569.956C442.791 608.211 422.443 647.607 386.373 657.949L75.1986 747.177C39.1284 757.52 0.995416 734.894 -9.97382 696.639L-154.582 79.0937C-165.551 40.8394 -145.203 1.44365 -109.132 -8.89929Z"
            fill="#83D2C6" />
    </g>
    <defs>
        <clipPath id="clip0">
            <rect width="375" height="180" fill="white" />
        </clipPath>
    </defs>
</svg>
