<svg fill="none" height="128" viewBox="0 0 375 128" width="375" xmlns="http://www.w3.org/2000/svg"
    xmlns:xlink="http://www.w3.org/1999/xlink">
    <clipPath id="a">
        <path d="m0 0h375v128h-375z" />
    </clipPath>
    <g clip-path="url(#a)">
        <path
            d="m523.523 634.481c7.499-2.16 14.353-5.72 20.372-10.582 2.903-2.344 5.593-4.987 7.996-7.855 2.381-2.842 4.5-5.929 6.3-9.176s3.295-6.68 4.443-10.205c1.159-3.558 1.974-7.24 2.424-10.944.937-7.706.317-15.429-1.842-22.957l-.014-.05-.012-.051-118.886-514.5971c-2.16-7.5081-5.723-14.3701-10.59-20.3957-2.344-2.9026-4.987-5.5928-7.855-7.9958-2.841-2.3807-5.929-4.5004-9.176-6.3002-3.247-1.7999-6.68-3.2947-10.205-4.44268-3.558-1.15897-7.239-1.97469-10.943-2.42469-7.706-.93613-15.43-.31633-22.957 1.84214l-274.7967 78.79653c-7.5274 2.1585-14.4061 5.7259-20.4449 10.6032-2.9026 2.3443-5.5928 4.9873-7.9958 7.8553-2.3808 2.842-4.5004 5.929-6.3002 9.176-1.7999 3.247-3.2947 6.68-4.4427 10.205-1.159 3.558-1.9747 7.24-2.4247 10.943-.9361 7.706-.3164 15.43 1.8421 22.958l.0726.253.0046.263 8.8945 514.383c2.1654 7.43 5.7075 14.223 10.5306 20.194 2.3444 2.903 4.9872 5.593 7.8554 7.996 2.8414 2.381 5.9285 4.501 9.1755 6.3 3.247 1.8 6.6807 3.295 10.2047 4.443 3.558 1.159 7.24 1.975 10.944 2.425 7.706.936 15.429.316 22.957-1.842l.074-.022.076-.015zm.478 1.944-384.796 78.796c-31.853 9.134-65.0795-9.284-74.2133-41.137l-8.8991-514.649c-9.1338-31.853 9.284-65.0802 41.1374-74.214l274.796-78.79656c31.854-9.13382 65.08 9.28406 74.214 41.13746l118.899 514.6491c9.134 31.853-9.284 65.08-41.138 74.214z"
            fill="#83d2c6" opacity="0.3"/>
        <path
            d="m493.523 654.481c7.499-2.16 14.353-5.72 20.372-10.582 2.903-2.344 5.593-4.987 7.996-7.855 2.381-2.842 4.5-5.929 6.3-9.176s3.295-6.68 4.443-10.205c1.159-3.558 1.974-7.24 2.424-10.944.937-7.706.317-15.429-1.842-22.957l-.014-.05-.012-.051-118.886-514.5971c-2.16-7.5081-5.723-14.3701-10.59-20.3957-2.344-2.9026-4.987-5.5928-7.855-7.9958-2.841-2.3807-5.929-4.5004-9.176-6.3002-3.247-1.7999-6.68-3.2947-10.205-4.4427-3.558-1.1589-7.239-1.9747-10.943-2.4247-7.706-.9361-15.43-.3163-22.957 1.8422l-274.7967 78.797c-7.5274 2.158-14.4061 5.725-20.4449 10.603-2.9026 2.344-5.5928 4.987-7.9958 7.855-2.3808 2.842-4.5004 5.929-6.3002 9.176-1.7999 3.247-3.2947 6.68-4.4427 10.205-1.159 3.558-1.9747 7.24-2.4247 10.943-.9361 7.706-.3164 15.43 1.8421 22.958l.0726.253.0046.263 8.8945 514.383c2.1654 7.43 5.7075 14.223 10.5306 20.194 2.3444 2.903 4.9872 5.593 7.8554 7.996 2.8414 2.381 5.9285 4.501 9.1755 6.3 3.247 1.8 6.6804 3.295 10.2051 4.443 3.5577 1.159 7.2397 1.975 10.9435 2.425 7.7057.936 15.4291.316 22.9571-1.842l.074-.022.076-.015zm.478 1.944-384.796 78.796c-31.8531 9.134-65.0795-9.284-74.2133-41.137l-8.8991-514.649c-9.1338-31.853 9.284-65.08 41.1374-74.214l274.796-78.7966c31.854-9.1338 65.08 9.2841 74.214 41.1375l118.899 514.6491c9.134 31.853-9.284 65.08-41.138 74.214z"
            fill="#83d2c6" opacity="0.3"/>
    </g>
</svg>