<svg width="375" height="181" viewBox="0 0 375 181" fill="none" xmlns="http://www.w3.org/2000/svg">
<g clip-path="url(#clip0)">
<path d="M478.165 128.959C486.229 126.457 493.601 122.332 500.079 116.697C503.206 113.977 506.106 110.909 508.696 107.579C511.265 104.278 513.552 100.69 515.495 96.9162C517.438 93.1396 519.053 89.1455 520.293 85.0448C521.546 80.9037 522.428 76.6175 522.914 72.3056C523.926 63.3331 523.256 54.3403 520.923 45.577L520.91 45.5297L520.9 45.4819L393.225 -549.681C390.826 -558.667 386.831 -566.844 381.352 -573.986C378.719 -577.418 375.751 -580.583 372.531 -583.393C369.343 -586.176 365.883 -588.632 362.248 -590.692C348.364 -598.562 332.375 -600.504 317.228 -596.161C316.842 -596.05 316.449 -595.933 316.062 -595.814L20.9575 -504.682C12.8637 -502.183 5.46493 -498.05 -1.03349 -492.397C-4.16119 -489.677 -7.06054 -486.609 -9.65105 -483.279C-12.2195 -479.978 -14.5068 -476.39 -16.4493 -472.616C-18.3932 -468.84 -20.0076 -464.845 -21.248 -460.745C-22.5005 -456.604 -23.3822 -452.317 -23.8687 -448.006C-24.8808 -439.033 -24.2109 -430.04 -21.8776 -421.277L-21.8144 -421.04L-21.8105 -420.795L-12.2579 174.168C-9.85348 183.08 -5.87638 191.194 -0.434848 198.287C2.19818 201.719 5.16598 204.884 8.38602 207.694C11.5747 210.477 15.0345 212.933 18.6693 214.993C32.5539 222.863 48.5418 224.805 63.6875 220.461C64.0786 220.349 64.4713 220.232 64.8544 220.114L64.9332 220.089L65.0138 220.072L478.165 128.959ZM478.678 130.894L65.4445 222.025C65.0436 222.148 64.6404 222.268 64.2392 222.383C30.4023 232.087 -4.55976 210.856 -14.2536 174.447L-23.8103 -420.762C-33.6191 -457.602 -13.8402 -496.03 20.3674 -506.593L315.471 -597.724C315.872 -597.848 316.276 -597.968 316.677 -598.083C350.514 -607.786 385.476 -586.555 395.17 -550.148L522.855 45.0624C532.664 81.902 512.885 120.33 478.678 130.894Z" fill="#09A2B6"/>
<path d="M448.165 148.959C456.229 146.457 463.601 142.332 470.079 136.697C473.206 133.977 476.106 130.909 478.696 127.579C481.265 124.278 483.552 120.69 485.495 116.916C487.438 113.14 489.053 109.146 490.293 105.045C491.546 100.904 492.428 96.6175 492.914 92.3056C493.926 83.3331 493.256 74.3403 490.923 65.577L490.91 65.5297L490.9 65.4819L363.225 -529.681C360.826 -538.667 356.831 -546.844 351.352 -553.986C348.719 -557.418 345.751 -560.583 342.531 -563.393C339.343 -566.176 335.883 -568.632 332.248 -570.692C318.364 -578.562 302.375 -580.504 287.228 -576.161C286.842 -576.05 286.449 -575.933 286.062 -575.814L-9.04255 -484.682C-17.1363 -482.183 -24.5351 -478.05 -31.0335 -472.397C-34.1612 -469.677 -37.0605 -466.609 -39.6511 -463.279C-42.2195 -459.978 -44.5068 -456.39 -46.4493 -452.616C-48.3932 -448.84 -50.0076 -444.845 -51.248 -440.745C-52.5005 -436.604 -53.3822 -432.317 -53.8687 -428.006C-54.8808 -419.033 -54.2109 -410.04 -51.8776 -401.277L-51.8144 -401.04L-51.8105 -400.795L-42.2579 194.168C-39.8535 203.08 -35.8764 211.194 -30.4348 218.287C-27.8018 221.719 -24.834 224.884 -21.614 227.694C-18.4253 230.477 -14.9655 232.933 -11.3307 234.993C2.55387 242.863 18.5418 244.805 33.6875 240.461C34.0786 240.349 34.4713 240.232 34.8544 240.114L34.9332 240.089L35.0138 240.072L448.165 148.959ZM448.678 150.894L35.4445 242.025C35.0436 242.148 34.6404 242.268 34.2392 242.383C0.402254 252.087 -34.5598 230.856 -44.2536 194.447L-53.8103 -400.762C-63.6191 -437.602 -43.8402 -476.03 -9.63263 -486.593L285.471 -577.724C285.872 -577.848 286.276 -577.968 286.677 -578.083C320.514 -587.786 355.476 -566.555 365.17 -530.148L492.855 65.0624C502.664 101.902 482.885 140.33 448.678 150.894Z" fill="#83D2C6"/>
<path d="M-108.659 -637.954C-117.172 -635.501 -124.925 -631.358 -131.704 -625.638C-134.974 -622.878 -137.997 -619.756 -140.688 -616.357C-143.356 -612.989 -145.722 -609.319 -147.72 -605.452C-149.719 -601.581 -151.366 -597.481 -152.615 -593.264C-153.876 -589.004 -154.743 -584.588 -155.19 -580.139C-156.122 -570.877 -155.27 -561.563 -152.659 -552.457L-152.646 -552.41L-152.634 -552.362L-8.0377 65.1357C-5.42566 74.2232 -1.21737 82.5561 4.4712 89.9048C7.20842 93.441 10.2833 96.7265 13.6103 99.6702C16.9043 102.585 20.474 105.19 24.2202 107.412C27.9639 109.634 31.9145 111.492 35.9622 112.935C40.0457 114.391 44.2639 115.437 48.4997 116.044C57.3061 117.307 66.1034 116.705 74.6473 114.255L385.822 25.0271C394.365 22.5771 402.145 18.4258 408.944 12.6882C412.215 9.92852 415.237 6.806 417.929 3.40768C420.597 0.0389047 422.963 -3.6303 424.96 -7.49801C426.959 -11.3682 428.606 -15.4688 429.855 -19.6861C431.117 -23.9456 431.983 -28.3613 432.431 -32.8106C433.362 -42.073 432.511 -51.3864 429.9 -60.4922L429.831 -60.7314L429.823 -60.9802L410.358 -676.277C407.742 -685.29 403.553 -693.559 397.904 -700.856C395.167 -704.392 392.092 -707.678 388.765 -710.622C385.471 -713.536 381.901 -716.141 378.155 -718.364C374.412 -720.585 370.461 -722.443 366.413 -723.886C362.33 -725.342 358.112 -726.388 353.876 -726.995C345.069 -728.258 336.272 -727.656 327.728 -725.206L327.649 -725.184L327.569 -725.167L-108.659 -637.954ZM-109.132 -639.899L327.177 -727.129C363.247 -737.472 401.38 -714.845 412.349 -676.591L431.822 -61.0434C442.791 -22.7892 422.443 16.6066 386.373 26.9496L75.1986 116.177C39.1284 126.52 0.995416 103.894 -9.97382 65.6396L-154.582 -551.906C-165.551 -590.16 -145.203 -629.556 -109.132 -639.899Z" fill="#83D2C6"/>
</g>
<defs>
<clipPath id="clip0">
<rect width="375" height="181" fill="white"/>
</clipPath>
</defs>
</svg>
